{
	"asset":{
		"generator":"Khronos glTF Blender I/O v4.5.48",
		"version":"2.0"
	},
	"extensionsUsed":[
		"KHR_lights_punctual"
	],
	"extensionsRequired":[
		"KHR_lights_punctual"
	],
	"extensions":{
		"KHR_lights_punctual":{
			"lights":[
				{
					"color":[
						1,
						1,
						1
					],
					"intensity":54351.41306588226,
					"type":"point",
					"name":"Light"
				},
				{
					"color":[
						1,
						1,
						1
					],
					"intensity":54351.41306588226,
					"type":"point",
					"name":"Light.001"
				},
				{
					"color":[
						1,
						0.17037008702754974,
						0.12537118792533875
					],
					"intensity":47.810035824775696,
					"type":"directional",
					"name":"Sun.001"
				}
			]
		}
	},
	"scene":0,
	"scenes":[
		{
			"name":"Scene",
			"nodes":[
				46
			]
		}
	],
	"nodes":[
		{
			"mesh":0,
			"name":"Cube"
		},
		{
			"extensions":{
				"KHR_lights_punctual":{
					"light":0
				}
			},
			"name":"Light",
			"rotation":[
				-0.28416627645492554,
				0.7269423007965088,
				0.34203392267227173,
				0.5232754945755005
			],
			"translation":[
				4.076245307922363,
				5.903861999511719,
				-1.0054539442062378
			]
		},
		{
			"camera":0,
			"name":"Camera",
			"rotation":[
				0.08764058351516724,
				0.5017849206924438,
				0.08331605792045593,
				0.8564984202384949
			],
			"translation":[
				14.191465377807617,
				2.6169443130493164,
				3.793546676635742
			]
		},
		{
			"camera":1,
			"name":"Camera.001",
			"rotation":[
				-0.20997296273708344,
				0.3857800364494324,
				0.09062845259904861,
				0.8937962055206299
			],
			"translation":[
				9.682117462158203,
				3.239223003387451,
				9.18913745880127
			]
		},
		{
			"mesh":1,
			"name":"Cube.001"
		},
		{
			"mesh":1,
			"name":"Cube.002",
			"translation":[
				1.0014501810073853,
				0.5119810700416565,
				-2.898414373397827
			]
		},
		{
			"mesh":1,
			"name":"Cube.003",
			"translation":[
				-1.3327287435531616,
				2.9256086349487305,
				-0.588646411895752
			]
		},
		{
			"mesh":1,
			"name":"Cube.004",
			"translation":[
				-0.03966712951660156,
				3.1742849349975586,
				-3.822746753692627
			]
		},
		{
			"mesh":1,
			"name":"Cube.005",
			"translation":[
				-2.817082643508911,
				2.6330480575561523,
				3.1326441764831543
			]
		},
		{
			"mesh":1,
			"name":"Cube.006",
			"translation":[
				-1.3123846054077148,
				-0.36569714546203613,
				3.4220855236053467
			]
		},
		{
			"mesh":1,
			"name":"Cube.007",
			"translation":[
				2.5727298259735107,
				0.5412394404411316,
				-6.491971969604492
			]
		},
		{
			"mesh":1,
			"name":"Cube.008",
			"translation":[
				1.5714116096496582,
				3.159661293029785,
				-7.452323913574219
			]
		},
		{
			"mesh":1,
			"name":"Cube.009",
			"translation":[
				5.529767036437988,
				0.7655298709869385,
				-6.837103843688965
			]
		},
		{
			"mesh":1,
			"name":"Cube.010",
			"translation":[
				4.751325607299805,
				3.630634307861328,
				-7.973329544067383
			]
		},
		{
			"mesh":1,
			"name":"Cube.011",
			"translation":[
				8.49847412109375,
				3.21852970123291,
				-8.177201271057129
			]
		},
		{
			"mesh":1,
			"name":"Cube.012",
			"translation":[
				8.783690452575684,
				0.49078941345214844,
				-7.049386024475098
			]
		},
		{
			"mesh":1,
			"name":"Cube.013",
			"translation":[
				12.477055549621582,
				2.845669746398926,
				-8.421097755432129
			]
		},
		{
			"mesh":1,
			"name":"Cube.014",
			"translation":[
				12.241644859313965,
				-0.09793400764465332,
				-7.14914608001709
			]
		},
		{
			"mesh":1,
			"name":"Cube.015",
			"translation":[
				14.312936782836914,
				-0.696190357208252,
				-4.317424774169922
			]
		},
		{
			"mesh":1,
			"name":"Cube.016",
			"translation":[
				15.28339672088623,
				2.718653440475464,
				-5.748111724853516
			]
		},
		{
			"mesh":1,
			"name":"Cube.017",
			"translation":[
				17.66440773010254,
				2.220097303390503,
				-2.634120464324951
			]
		},
		{
			"mesh":1,
			"name":"Cube.018",
			"translation":[
				16.931800842285156,
				-0.8956289291381836,
				-1.1527352333068848
			]
		},
		{
			"mesh":1,
			"name":"Cube.019",
			"translation":[
				20.834470748901367,
				1.1980915069580078,
				1.7791495323181152
			]
		},
		{
			"mesh":1,
			"name":"Cube.020",
			"translation":[
				19.05521583557129,
				-2.042252540588379,
				2.1482186317443848
			]
		},
		{
			"mesh":1,
			"name":"Cube.021",
			"translation":[
				23.61037254333496,
				-0.496911883354187,
				6.240720272064209
			]
		},
		{
			"mesh":1,
			"name":"Cube.022",
			"translation":[
				20.42645835876465,
				-4.584725856781006,
				5.624602317810059
			]
		},
		{
			"mesh":1,
			"name":"Cube.023",
			"translation":[
				18.11000633239746,
				-4.422468185424805,
				8.458784103393555
			]
		},
		{
			"mesh":1,
			"name":"Cube.024",
			"translation":[
				16.15854835510254,
				0.3620733618736267,
				6.264942646026611
			]
		},
		{
			"mesh":1,
			"name":"Cube.025",
			"translation":[
				11.228395462036133,
				-1.2402958869934082,
				10.22933578491211
			]
		},
		{
			"mesh":1,
			"name":"Cube.026",
			"translation":[
				11.724918365478516,
				-2.982003927230835,
				7.809791088104248
			]
		},
		{
			"mesh":1,
			"name":"Cube.027",
			"translation":[
				14.372112274169922,
				0.710421085357666,
				8.687610626220703
			]
		},
		{
			"mesh":1,
			"name":"Cube.028",
			"translation":[
				10.166473388671875,
				0.733643651008606,
				13.545137405395508
			]
		},
		{
			"mesh":1,
			"name":"Cube.029",
			"translation":[
				7.749095916748047,
				-2.2388672828674316,
				13.167475700378418
			]
		},
		{
			"mesh":1,
			"name":"Cube.032",
			"rotation":[
				0.5634324550628662,
				-0.4625420570373535,
				-0.2576690912246704,
				0.6341966390609741
			],
			"translation":[
				-3.324089288711548,
				-1.9960289001464844,
				-2.812774658203125
			]
		},
		{
			"children":[
				33
			],
			"mesh":1,
			"name":"Cube.031",
			"rotation":[
				0.3906042277812958,
				0.8914092183113098,
				-0.2297913283109665,
				0.0037379146087914705
			],
			"translation":[
				1.2750146389007568,
				3.2559118270874023,
				-0.6877313852310181
			]
		},
		{
			"children":[
				34
			],
			"mesh":1,
			"name":"Cube.030",
			"rotation":[
				-0.00890068057924509,
				-0.4289875328540802,
				0.5756308436393738,
				0.6960887908935547
			],
			"translation":[
				0.9050354957580566,
				-7.5474419593811035,
				8.2266845703125
			]
		},
		{
			"extensions":{
				"KHR_lights_punctual":{
					"light":1
				}
			},
			"name":"Light.001",
			"rotation":[
				-0.28416627645492554,
				0.7269423007965088,
				0.34203392267227173,
				0.5232754945755005
			],
			"translation":[
				4.076245307922363,
				5.903861999511719,
				-1.0054539442062378
			]
		},
		{
			"extensions":{
				"KHR_lights_punctual":{
					"light":2
				}
			},
			"name":"Sun.001",
			"rotation":[
				-0.21840627491474152,
				0.515621542930603,
				0.4039362072944641,
				0.7233732342720032
			],
			"translation":[
				36.913482666015625,
				26.311267852783203,
				16.333539962768555
			]
		},
		{
			"children":[
				3,
				4,
				5,
				6,
				7,
				8,
				9,
				10,
				11,
				12,
				13,
				14,
				15,
				16,
				17,
				18,
				19,
				20,
				21,
				22,
				23,
				24,
				25,
				26,
				27,
				28,
				29,
				30,
				31,
				32,
				35,
				36,
				37
			],
			"name":"Collection"
		},
		{
			"children":[
				38
			],
			"name":"Scene Collection"
		},
		{
			"camera":2,
			"name":"Camera.002",
			"rotation":[
				0.017785290256142616,
				-0.6557628512382507,
				0.13241365551948547,
				0.7430514693260193
			],
			"translation":[
				6.138355731964111,
				2.19449520111084,
				-1.9073972702026367
			]
		},
		{
			"camera":3,
			"name":"Camera.003",
			"rotation":[
				0.017785290256142616,
				-0.6557628512382507,
				0.13241365551948547,
				0.7430514693260193
			],
			"translation":[
				5.420555114746094,
				0.5203120708465576,
				4.545035362243652
			]
		},
		{
			"camera":4,
			"name":"Camera.004",
			"rotation":[
				0.017785290256142616,
				-0.6557628512382507,
				0.13241365551948547,
				0.7430514693260193
			],
			"translation":[
				5.772772789001465,
				1.4611871242523193,
				1.077934980392456
			]
		},
		{
			"camera":5,
			"name":"Camera.005",
			"rotation":[
				0.017785290256142616,
				-0.6557628512382507,
				0.13241365551948547,
				0.7430514693260193
			],
			"translation":[
				-0.5371237397193909,
				0.13022327423095703,
				5.7149658203125
			]
		},
		{
			"camera":6,
			"name":"Camera.006",
			"rotation":[
				0.017785290256142616,
				-0.6557628512382507,
				0.13241365551948547,
				0.7430514693260193
			],
			"translation":[
				0.7054319977760315,
				1.543677806854248,
				3.4141347408294678
			]
		},
		{
			"children":[
				0,
				1,
				2,
				39,
				40,
				41,
				42,
				43,
				44
			],
			"name":"Collection"
		},
		{
			"children":[
				45
			],
			"name":"Scene Collection"
		}
	],
	"cameras":[
		{
			"name":"Camera",
			"perspective":{
				"aspectRatio":1.7777777777777777,
				"yfov":0.39959652046304894,
				"zfar":100,
				"znear":0.10000000149011612
			},
			"type":"perspective"
		},
		{
			"name":"Camera.001",
			"perspective":{
				"aspectRatio":1.7777777777777777,
				"yfov":0.39959651231765747,
				"zfar":100,
				"znear":0.10000000149011612
			},
			"type":"perspective"
		},
		{
			"name":"Camera.002",
			"perspective":{
				"aspectRatio":1.7777777777777777,
				"yfov":0.39959652046304894,
				"zfar":100,
				"znear":0.10000000149011612
			},
			"type":"perspective"
		},
		{
			"name":"Camera.003",
			"perspective":{
				"aspectRatio":1.7777777777777777,
				"yfov":0.39959652046304894,
				"zfar":100,
				"znear":0.10000000149011612
			},
			"type":"perspective"
		},
		{
			"name":"Camera.004",
			"perspective":{
				"aspectRatio":1.7777777777777777,
				"yfov":0.39959652046304894,
				"zfar":100,
				"znear":0.10000000149011612
			},
			"type":"perspective"
		},
		{
			"name":"Camera.005",
			"perspective":{
				"aspectRatio":1.7777777777777777,
				"yfov":0.39959652046304894,
				"zfar":100,
				"znear":0.10000000149011612
			},
			"type":"perspective"
		},
		{
			"name":"Camera.006",
			"perspective":{
				"aspectRatio":1.7777777777777777,
				"yfov":0.39959652046304894,
				"zfar":100,
				"znear":0.10000000149011612
			},
			"type":"perspective"
		}
	],
	"materials":[
		{
			"doubleSided":true,
			"name":"Material",
			"pbrMetallicRoughness":{
				"baseColorFactor":[
					0.800000011920929,
					0.800000011920929,
					0.800000011920929,
					1
				],
				"metallicFactor":0,
				"roughnessFactor":0.5
			}
		},
		{
			"doubleSided":true,
			"name":"Material.001",
			"pbrMetallicRoughness":{
				"baseColorFactor":[
					0.800000011920929,
					0.800000011920929,
					0.800000011920929,
					1
				],
				"metallicFactor":0,
				"roughnessFactor":0.5
			}
		}
	],
	"meshes":[
		{
			"name":"Cube",
			"primitives":[
				{
					"attributes":{
						"POSITION":0,
						"NORMAL":1,
						"TEXCOORD_0":2,
						"TANGENT":3
					},
					"indices":4,
					"material":0
				}
			]
		},
		{
			"name":"Cube.001",
			"primitives":[
				{
					"attributes":{
						"POSITION":5,
						"NORMAL":6,
						"TEXCOORD_0":7,
						"TANGENT":8
					},
					"indices":4,
					"material":1
				}
			]
		}
	],
	"accessors":[
		{
			"bufferView":0,
			"componentType":5126,
			"count":24,
			"max":[
				1,
				1,
				1
			],
			"min":[
				-1,
				-1,
				-1
			],
			"type":"VEC3"
		},
		{
			"bufferView":1,
			"componentType":5126,
			"count":24,
			"type":"VEC3"
		},
		{
			"bufferView":2,
			"componentType":5126,
			"count":24,
			"type":"VEC2"
		},
		{
			"bufferView":3,
			"componentType":5126,
			"count":24,
			"type":"VEC4"
		},
		{
			"bufferView":4,
			"componentType":5123,
			"count":36,
			"type":"SCALAR"
		},
		{
			"bufferView":5,
			"componentType":5126,
			"count":24,
			"max":[
				1,
				1,
				1
			],
			"min":[
				-1,
				-1,
				-1
			],
			"type":"VEC3"
		},
		{
			"bufferView":6,
			"componentType":5126,
			"count":24,
			"type":"VEC3"
		},
		{
			"bufferView":7,
			"componentType":5126,
			"count":24,
			"type":"VEC2"
		},
		{
			"bufferView":8,
			"componentType":5126,
			"count":24,
			"type":"VEC4"
		}
	],
	"bufferViews":[
		{
			"buffer":0,
			"byteLength":288,
			"byteOffset":0,
			"target":34962
		},
		{
			"buffer":0,
			"byteLength":288,
			"byteOffset":288,
			"target":34962
		},
		{
			"buffer":0,
			"byteLength":192,
			"byteOffset":576,
			"target":34962
		},
		{
			"buffer":0,
			"byteLength":384,
			"byteOffset":768,
			"target":34962
		},
		{
			"buffer":0,
			"byteLength":72,
			"byteOffset":1152,
			"target":34963
		},
		{
			"buffer":0,
			"byteLength":288,
			"byteOffset":1224,
			"target":34962
		},
		{
			"buffer":0,
			"byteLength":288,
			"byteOffset":1512,
			"target":34962
		},
		{
			"buffer":0,
			"byteLength":192,
			"byteOffset":1800,
			"target":34962
		},
		{
			"buffer":0,
			"byteLength":384,
			"byteOffset":1992,
			"target":34962
		}
	],
	"buffers":[
		{
			"byteLength":2376,
			"uri":"scene.bin"
		}
	]
}
