{
	"asset":{
		"generator":"Khronos glTF Blender I/O v4.5.48",
		"version":"2.0"
	},
	"extensionsUsed":[
		"KHR_materials_unlit",
		"KHR_lights_punctual"
	],
	"extensionsRequired":[
		"KHR_lights_punctual"
	],
	"extensions":{
		"KHR_lights_punctual":{
			"lights":[
				{
					"color":[
						0.96979820728302,
						1,
						0.4086240231990814
					],
					"intensity":683,
					"type":"directional",
					"name":"Sun"
				}
			]
		}
	},
	"scene":0,
	"scenes":[
		{
			"name":"Scene",
			"nodes":[
				37
			]
		}
	],
	"nodes":[
		{
			"camera":0,
			"name":"Camera",
			"rotation":[
				-0.20997293293476105,
				0.38578000664711,
				0.09062844514846802,
				0.8937962055206299
			],
			"translation":[
				4.73281717300415,
				4.136977672576904,
				5.493429183959961
			]
		},
		{
			"mesh":0,
			"name":"Circle.007_0"
		},
		{
			"mesh":1,
			"name":"Circle.007_0.001"
		},
		{
			"children":[
				1,
				2
			],
			"name":"Circle.007",
			"rotation":[
				-0.048608340322971344,
				0.7054341435432434,
				0.048608336597681046,
				0.7054340839385986
			],
			"translation":[
				-1.8045202493667603,
				-0.4088999927043915,
				-4.582729816436768
			]
		},
		{
			"mesh":2,
			"name":"Frog_Body_0"
		},
		{
			"mesh":3,
			"name":"Frog_Body_1"
		},
		{
			"mesh":4,
			"name":"Frog_Body_2"
		},
		{
			"mesh":5,
			"name":"Frog_Body_3"
		},
		{
			"mesh":6,
			"name":"Frog_Body_4"
		},
		{
			"mesh":7,
			"name":"Frog_Body_5"
		},
		{
			"children":[
				4,
				5,
				6,
				7,
				8,
				9
			],
			"name":"Frog_Body",
			"rotation":[
				-0.03400994464755058,
				-0.13807977735996246,
				-0.2367342710494995,
				0.9611110091209412
			],
			"scale":[
				0.9999963045120239,
				1,
				1.0000054836273193
			],
			"translation":[
				-1.499610185623169,
				-1.6032001972198486,
				0.4563601016998291
			]
		},
		{
			"mesh":8,
			"name":"Plane_0"
		},
		{
			"children":[
				11
			],
			"name":"Plane"
		},
		{
			"mesh":9,
			"name":"Plane.001_0"
		},
		{
			"children":[
				13
			],
			"name":"Plane.001",
			"rotation":[
				0,
				0,
				-1,
				0
			],
			"translation":[
				0,
				0,
				-2.03341007232666
			]
		},
		{
			"mesh":10,
			"name":"Roundcube_0"
		},
		{
			"mesh":11,
			"name":"Roundcube_1"
		},
		{
			"mesh":12,
			"name":"Roundcube_2"
		},
		{
			"mesh":13,
			"name":"Roundcube_3"
		},
		{
			"mesh":14,
			"name":"Roundcube_4"
		},
		{
			"children":[
				15,
				16,
				17,
				18,
				19
			],
			"name":"Roundcube",
			"rotation":[
				0,
				0,
				-0.3119630515575409,
				0.9500942230224609
			],
			"scale":[
				1.000002384185791,
				1.000002384185791,
				1
			],
			"translation":[
				0,
				0,
				0.6253200173377991
			]
		},
		{
			"mesh":15,
			"name":"Roundcube.001_0"
		},
		{
			"mesh":16,
			"name":"Roundcube.001_1"
		},
		{
			"mesh":17,
			"name":"Roundcube.001_2"
		},
		{
			"mesh":18,
			"name":"Roundcube.001_3"
		},
		{
			"mesh":19,
			"name":"Roundcube.001_4"
		},
		{
			"children":[
				21,
				22,
				23,
				24,
				25
			],
			"name":"Roundcube.001",
			"rotation":[
				0,
				0,
				-0.3119630515575409,
				0.9500942230224609
			],
			"scale":[
				1.000002384185791,
				1.000002384185791,
				1
			],
			"translation":[
				0,
				0,
				-1.18461012840271
			]
		},
		{
			"mesh":20,
			"name":"Vert_0"
		},
		{
			"children":[
				27
			],
			"name":"Vert",
			"translation":[
				-1.621010184288025,
				-1.6606899499893188,
				0.6324400901794434
			]
		},
		{
			"children":[
				3,
				10,
				12,
				14,
				20,
				26,
				28
			],
			"name":"Root"
		},
		{
			"children":[
				29
			],
			"name":"Sketchfab_model",
			"rotation":[
				-0.7071067690849304,
				0,
				0,
				0.7071068286895752
			],
			"scale":[
				1.4664316177368164,
				1.4664316177368164,
				1.4664316177368164
			]
		},
		{
			"extensions":{
				"KHR_lights_punctual":{
					"light":0
				}
			},
			"name":"Sun",
			"rotation":[
				-0.42852911353111267,
				-0.6621515154838562,
				0.17042259871959686,
				0.5906558632850647
			],
			"translation":[
				-9.549118041992188,
				2.919562339782715,
				-0.08851990848779678
			]
		},
		{
			"children":[
				0,
				30,
				31
			],
			"name":"Collection"
		},
		{
			"children":[
				32
			],
			"name":"Scene Collection"
		},
		{
			"camera":1,
			"name":"Camera.001",
			"rotation":[
				-0.20997293293476105,
				0.38578000664711,
				0.09062845259904861,
				0.8937962055206299
			],
			"translation":[
				-0.7178694605827332,
				5.865975856781006,
				-8.127376556396484
			]
		},
		{
			"children":[
				34
			],
			"name":"Collection.001"
		},
		{
			"children":[
				35
			],
			"name":"Scene Collection.001",
			"rotation":[
				0,
				-0.9596237540245056,
				0,
				0.2812868356704712
			],
			"translation":[
				-8.491097450256348,
				-3.573542594909668,
				-6.1414408683776855
			]
		},
		{
			"children":[
				33,
				36
			],
			"name":"Scene Collection"
		}
	],
	"cameras":[
		{
			"name":"Camera.001",
			"perspective":{
				"aspectRatio":1.7777777777777777,
				"yfov":0.39959651231765747,
				"zfar":100,
				"znear":0.10000000149011612
			},
			"type":"perspective"
		},
		{
			"name":"Camera.002",
			"orthographic":{
				"xmag":1.9000000953674316,
				"ymag":1.0687500536441803,
				"zfar":100,
				"znear":0.10000000149011612
			},
			"type":"orthographic"
		}
	],
	"materials":[
		{
			"alphaCutoff":0.6968368887901306,
			"alphaMode":"MASK",
			"doubleSided":true,
			"extensions":{
				"KHR_materials_unlit":{}
			},
			"name":"Leaf",
			"pbrMetallicRoughness":{
				"baseColorTexture":{
					"index":0
				},
				"metallicFactor":0,
				"roughnessFactor":0.9
			}
		},
		{
			"extensions":{
				"KHR_materials_unlit":{}
			},
			"name":"Head",
			"pbrMetallicRoughness":{
				"baseColorFactor":[
					0.9602083563804626,
					0.9235384464263916,
					0.6876022219657898,
					1
				],
				"metallicFactor":0,
				"roughnessFactor":0.9
			}
		},
		{
			"doubleSided":true,
			"extensions":{
				"KHR_materials_unlit":{}
			},
			"name":"material_3",
			"pbrMetallicRoughness":{
				"baseColorFactor":[
					0,
					0,
					0,
					1
				],
				"metallicFactor":0,
				"roughnessFactor":0.9
			}
		},
		{
			"doubleSided":true,
			"extensions":{
				"KHR_materials_unlit":{}
			},
			"name":"Viola",
			"pbrMetallicRoughness":{
				"baseColorFactor":[
					0.0851527750492096,
					0.018652519211173058,
					0,
					1
				],
				"metallicFactor":0,
				"roughnessFactor":0.9
			}
		},
		{
			"doubleSided":true,
			"extensions":{
				"KHR_materials_unlit":{}
			},
			"name":"Frog",
			"pbrMetallicRoughness":{
				"baseColorFactor":[
					0.14868833124637604,
					0.2099684774875641,
					0.004596624989062548,
					1
				],
				"metallicFactor":0,
				"roughnessFactor":0.9
			}
		},
		{
			"doubleSided":true,
			"extensions":{
				"KHR_materials_unlit":{}
			},
			"name":"Frog_2",
			"pbrMetallicRoughness":{
				"baseColorFactor":[
					0.2713128328323364,
					0.3103458881378174,
					0.031308844685554504,
					1
				],
				"metallicFactor":0,
				"roughnessFactor":0.9
			}
		},
		{
			"doubleSided":true,
			"extensions":{
				"KHR_materials_unlit":{}
			},
			"name":"material",
			"pbrMetallicRoughness":{
				"metallicFactor":0,
				"roughnessFactor":0.9
			}
		},
		{
			"alphaMode":"BLEND",
			"doubleSided":true,
			"extensions":{
				"KHR_materials_unlit":{}
			},
			"name":"Water",
			"pbrMetallicRoughness":{
				"baseColorFactor":[
					1,
					1,
					1,
					0.9200000166893005
				],
				"baseColorTexture":{
					"index":1
				},
				"metallicFactor":0,
				"roughnessFactor":0.9
			}
		},
		{
			"doubleSided":true,
			"extensions":{
				"KHR_materials_unlit":{}
			},
			"name":"Bill",
			"pbrMetallicRoughness":{
				"baseColorFactor":[
					0.8648245930671692,
					0.19004887342453003,
					0,
					1
				],
				"metallicFactor":0,
				"roughnessFactor":0.9
			}
		},
		{
			"doubleSided":true,
			"extensions":{
				"KHR_materials_unlit":{}
			},
			"name":"pale_white",
			"pbrMetallicRoughness":{
				"baseColorFactor":[
					0.8834365606307983,
					0.7481553554534912,
					0.7481553554534912,
					1
				],
				"metallicFactor":0,
				"roughnessFactor":0.9
			}
		},
		{
			"doubleSided":true,
			"extensions":{
				"KHR_materials_unlit":{}
			},
			"name":"Bill2",
			"pbrMetallicRoughness":{
				"baseColorFactor":[
					0.6751395463943481,
					0.18596448004245758,
					0.008970420807600021,
					1
				],
				"metallicFactor":0,
				"roughnessFactor":0.9
			}
		}
	],
	"meshes":[
		{
			"name":"Circle.007_0",
			"primitives":[
				{
					"attributes":{
						"POSITION":0,
						"NORMAL":1,
						"TEXCOORD_0":2,
						"TANGENT":3
					},
					"indices":4,
					"material":0
				}
			]
		},
		{
			"name":"Circle.007_0.001",
			"primitives":[
				{
					"attributes":{
						"POSITION":5,
						"NORMAL":6,
						"TEXCOORD_0":7,
						"TANGENT":8
					},
					"indices":9,
					"material":0
				}
			]
		},
		{
			"name":"Frog_Body_0",
			"primitives":[
				{
					"attributes":{
						"POSITION":10,
						"NORMAL":11
					},
					"indices":12,
					"material":1
				}
			]
		},
		{
			"name":"Frog_Body_1",
			"primitives":[
				{
					"attributes":{
						"POSITION":13,
						"NORMAL":14
					},
					"indices":15,
					"material":2
				}
			]
		},
		{
			"name":"Frog_Body_2",
			"primitives":[
				{
					"attributes":{
						"POSITION":16,
						"NORMAL":17
					},
					"indices":18,
					"material":3
				}
			]
		},
		{
			"name":"Frog_Body_3",
			"primitives":[
				{
					"attributes":{
						"POSITION":19,
						"NORMAL":20
					},
					"indices":21,
					"material":4
				}
			]
		},
		{
			"name":"Frog_Body_4",
			"primitives":[
				{
					"attributes":{
						"POSITION":22,
						"NORMAL":23
					},
					"indices":24,
					"material":5
				}
			]
		},
		{
			"name":"Frog_Body_5",
			"primitives":[
				{
					"attributes":{
						"POSITION":25,
						"NORMAL":26
					},
					"indices":27,
					"material":6
				}
			]
		},
		{
			"name":"Plane_0",
			"primitives":[
				{
					"attributes":{
						"POSITION":28,
						"NORMAL":29,
						"TEXCOORD_0":30,
						"TANGENT":31
					},
					"indices":32,
					"material":7
				}
			]
		},
		{
			"name":"Plane.001_0",
			"primitives":[
				{
					"attributes":{
						"POSITION":33,
						"NORMAL":34,
						"TEXCOORD_0":35,
						"TANGENT":36
					},
					"indices":32,
					"material":7
				}
			]
		},
		{
			"name":"Roundcube_0",
			"primitives":[
				{
					"attributes":{
						"POSITION":37,
						"NORMAL":38
					},
					"indices":39,
					"material":1
				}
			]
		},
		{
			"name":"Roundcube_1",
			"primitives":[
				{
					"attributes":{
						"POSITION":40,
						"NORMAL":41
					},
					"indices":42,
					"material":8
				}
			]
		},
		{
			"name":"Roundcube_2",
			"primitives":[
				{
					"attributes":{
						"POSITION":43,
						"NORMAL":44
					},
					"indices":45,
					"material":2
				}
			]
		},
		{
			"name":"Roundcube_3",
			"primitives":[
				{
					"attributes":{
						"POSITION":46,
						"NORMAL":47
					},
					"indices":48,
					"material":9
				}
			]
		},
		{
			"name":"Roundcube_4",
			"primitives":[
				{
					"attributes":{
						"POSITION":49,
						"NORMAL":50
					},
					"indices":51,
					"material":10
				}
			]
		},
		{
			"name":"Roundcube.001_0",
			"primitives":[
				{
					"attributes":{
						"POSITION":52,
						"NORMAL":53
					},
					"indices":54,
					"material":1
				}
			]
		},
		{
			"name":"Roundcube.001_1",
			"primitives":[
				{
					"attributes":{
						"POSITION":55,
						"NORMAL":56
					},
					"indices":57,
					"material":8
				}
			]
		},
		{
			"name":"Roundcube.001_2",
			"primitives":[
				{
					"attributes":{
						"POSITION":58,
						"NORMAL":59
					},
					"indices":60,
					"material":2
				}
			]
		},
		{
			"name":"Roundcube.001_3",
			"primitives":[
				{
					"attributes":{
						"POSITION":61,
						"NORMAL":62
					},
					"indices":63,
					"material":9
				}
			]
		},
		{
			"name":"Roundcube.001_4",
			"primitives":[
				{
					"attributes":{
						"POSITION":64,
						"NORMAL":65
					},
					"indices":66,
					"material":10
				}
			]
		},
		{
			"name":"Vert_0",
			"primitives":[
				{
					"attributes":{
						"POSITION":67,
						"NORMAL":68
					},
					"indices":69,
					"material":6
				}
			]
		}
	],
	"textures":[
		{
			"sampler":0,
			"source":0
		},
		{
			"sampler":0,
			"source":1
		}
	],
	"images":[
		{
			"mimeType":"image/png",
			"name":"Leaf_baseColor",
			"uri":"textures/Leaf_baseColor.png"
		},
		{
			"mimeType":"image/png",
			"name":"Water_baseColor",
			"uri":"textures/Water_baseColor.png"
		}
	],
	"accessors":[
		{
			"bufferView":0,
			"componentType":5126,
			"count":123858,
			"max":[
				-4.0277099609375,
				47.653079986572266,
				53.32796096801758
			],
			"min":[
				-4.8851799964904785,
				-44.81277084350586,
				-47.63576889038086
			],
			"type":"VEC3"
		},
		{
			"bufferView":1,
			"componentType":5126,
			"count":123858,
			"type":"VEC3"
		},
		{
			"bufferView":2,
			"componentType":5126,
			"count":123858,
			"type":"VEC2"
		},
		{
			"bufferView":3,
			"componentType":5126,
			"count":123858,
			"type":"VEC4"
		},
		{
			"bufferView":4,
			"componentType":5125,
			"count":150273,
			"type":"SCALAR"
		},
		{
			"bufferView":5,
			"componentType":5126,
			"count":18681,
			"max":[
				-4.0277099609375,
				14.603219985961914,
				53.32891082763672
			],
			"min":[
				-4.58597993850708,
				-46.10274887084961,
				-23.614730834960938
			],
			"type":"VEC3"
		},
		{
			"bufferView":6,
			"componentType":5126,
			"count":18681,
			"type":"VEC3"
		},
		{
			"bufferView":7,
			"componentType":5126,
			"count":18681,
			"type":"VEC2"
		},
		{
			"bufferView":8,
			"componentType":5126,
			"count":18681,
			"type":"VEC4"
		},
		{
			"bufferView":9,
			"componentType":5123,
			"count":22725,
			"type":"SCALAR"
		},
		{
			"bufferView":10,
			"componentType":5126,
			"count":148,
			"max":[
				0.08251000195741653,
				0.18964000046253204,
				0.23958000540733337
			],
			"min":[
				-0.36577001214027405,
				-0.0783500000834465,
				-1.1038099527359009
			],
			"type":"VEC3"
		},
		{
			"bufferView":11,
			"componentType":5126,
			"count":148,
			"type":"VEC3"
		},
		{
			"bufferView":12,
			"componentType":5123,
			"count":672,
			"type":"SCALAR"
		},
		{
			"bufferView":13,
			"componentType":5126,
			"count":3712,
			"max":[
				0.23804999887943268,
				0.18628999590873718,
				0.3201799988746643
			],
			"min":[
				-0.46755000948905945,
				-0.2014400064945221,
				-1.2761000394821167
			],
			"type":"VEC3"
		},
		{
			"bufferView":14,
			"componentType":5126,
			"count":3712,
			"type":"VEC3"
		},
		{
			"bufferView":15,
			"componentType":5123,
			"count":8064,
			"type":"SCALAR"
		},
		{
			"bufferView":16,
			"componentType":5126,
			"count":192,
			"max":[
				0.15386000275611877,
				-0.03920000046491623,
				0.28988000750541687
			],
			"min":[
				-0.423880010843277,
				-0.4976100027561188,
				-1.2040499448776245
			],
			"type":"VEC3"
		},
		{
			"bufferView":17,
			"componentType":5126,
			"count":192,
			"type":"VEC3"
		},
		{
			"bufferView":18,
			"componentType":5123,
			"count":1128,
			"type":"SCALAR"
		},
		{
			"bufferView":19,
			"componentType":5126,
			"count":2492,
			"max":[
				0.16222000122070312,
				0.3629299998283386,
				0.2595899999141693
			],
			"min":[
				-0.492139995098114,
				-0.35512998700141907,
				-1.1432499885559082
			],
			"type":"VEC3"
		},
		{
			"bufferView":20,
			"componentType":5126,
			"count":2492,
			"type":"VEC3"
		},
		{
			"bufferView":21,
			"componentType":5123,
			"count":13224,
			"type":"SCALAR"
		},
		{
			"bufferView":22,
			"componentType":5126,
			"count":322,
			"max":[
				0.0034099998883903027,
				0.1686200052499771,
				0.18664999306201935
			],
			"min":[
				-0.38040000200271606,
				-0.1672399938106537,
				-1.0169899463653564
			],
			"type":"VEC3"
		},
		{
			"bufferView":23,
			"componentType":5126,
			"count":322,
			"type":"VEC3"
		},
		{
			"bufferView":24,
			"componentType":5123,
			"count":1728,
			"type":"SCALAR"
		},
		{
			"bufferView":25,
			"componentType":5126,
			"count":26,
			"max":[
				0.23804999887943268,
				-0.05538000166416168,
				0.3162499964237213
			],
			"min":[
				-0.14969000220298767,
				-0.2014400064945221,
				0.14568999409675598
			],
			"type":"VEC3"
		},
		{
			"bufferView":26,
			"componentType":5126,
			"count":26,
			"type":"VEC3"
		},
		{
			"bufferView":27,
			"componentType":5123,
			"count":36,
			"type":"SCALAR"
		},
		{
			"bufferView":28,
			"componentType":5126,
			"count":16,
			"max":[
				45.44327163696289,
				45.44327163696289,
				-0.02353999949991703
			],
			"min":[
				-45.44327163696289,
				-45.44327163696289,
				-0.02353999949991703
			],
			"type":"VEC3"
		},
		{
			"bufferView":29,
			"componentType":5126,
			"count":16,
			"type":"VEC3"
		},
		{
			"bufferView":30,
			"componentType":5126,
			"count":16,
			"type":"VEC2"
		},
		{
			"bufferView":31,
			"componentType":5126,
			"count":16,
			"type":"VEC4"
		},
		{
			"bufferView":32,
			"componentType":5123,
			"count":54,
			"type":"SCALAR"
		},
		{
			"bufferView":33,
			"componentType":5126,
			"count":16,
			"max":[
				45.44327163696289,
				45.44327163696289,
				-0.02353999949991703
			],
			"min":[
				-45.44327163696289,
				-45.44327163696289,
				-0.02353999949991703
			],
			"type":"VEC3"
		},
		{
			"bufferView":34,
			"componentType":5126,
			"count":16,
			"type":"VEC3"
		},
		{
			"bufferView":35,
			"componentType":5126,
			"count":16,
			"type":"VEC2"
		},
		{
			"bufferView":36,
			"componentType":5126,
			"count":16,
			"type":"VEC4"
		},
		{
			"bufferView":37,
			"componentType":5126,
			"count":8789,
			"max":[
				0.4583500027656555,
				1.1832799911499023,
				1.1289900541305542
			],
			"min":[
				-0.522849977016449,
				-0.5868800282478333,
				-0.6712300181388855
			],
			"type":"VEC3"
		},
		{
			"bufferView":38,
			"componentType":5126,
			"count":8789,
			"type":"VEC3"
		},
		{
			"bufferView":39,
			"componentType":5123,
			"count":49152,
			"type":"SCALAR"
		},
		{
			"bufferView":40,
			"componentType":5126,
			"count":1116,
			"max":[
				0.2908099889755249,
				-0.18294000625610352,
				0.22345000505447388
			],
			"min":[
				-0.2908099889755249,
				-0.6888899803161621,
				-0.20475000143051147
			],
			"type":"VEC3"
		},
		{
			"bufferView":41,
			"componentType":5126,
			"count":1116,
			"type":"VEC3"
		},
		{
			"bufferView":42,
			"componentType":5123,
			"count":6360,
			"type":"SCALAR"
		},
		{
			"bufferView":43,
			"componentType":5126,
			"count":223,
			"max":[
				0.38534000515937805,
				-0.16854999959468842,
				0.2752699851989746
			],
			"min":[
				-0.38534000515937805,
				-0.4818199872970581,
				-0.057989999651908875
			],
			"type":"VEC3"
		},
		{
			"bufferView":44,
			"componentType":5126,
			"count":223,
			"type":"VEC3"
		},
		{
			"bufferView":45,
			"componentType":5123,
			"count":1248,
			"type":"SCALAR"
		},
		{
			"bufferView":46,
			"componentType":5126,
			"count":731,
			"max":[
				0.33570998907089233,
				1.1832799911499023,
				1.1271899938583374
			],
			"min":[
				-0.4390900135040283,
				-0.38304999470710754,
				-0.5814700126647949
			],
			"type":"VEC3"
		},
		{
			"bufferView":47,
			"componentType":5126,
			"count":731,
			"type":"VEC3"
		},
		{
			"bufferView":48,
			"componentType":5123,
			"count":2151,
			"type":"SCALAR"
		},
		{
			"bufferView":49,
			"componentType":5126,
			"count":104,
			"max":[
				0.2908099889755249,
				-0.18294000625610352,
				0.05522000044584274
			],
			"min":[
				-0.2908099889755249,
				-0.6888899803161621,
				-0.09405999630689621
			],
			"type":"VEC3"
		},
		{
			"bufferView":50,
			"componentType":5126,
			"count":104,
			"type":"VEC3"
		},
		{
			"bufferView":51,
			"componentType":5123,
			"count":312,
			"type":"SCALAR"
		},
		{
			"bufferView":52,
			"componentType":5126,
			"count":8778,
			"max":[
				0.4583500027656555,
				1.1832799911499023,
				1.1289900541305542
			],
			"min":[
				-0.522849977016449,
				-0.5868800282478333,
				-0.6712300181388855
			],
			"type":"VEC3"
		},
		{
			"bufferView":53,
			"componentType":5126,
			"count":8778,
			"type":"VEC3"
		},
		{
			"bufferView":54,
			"componentType":5123,
			"count":49152,
			"type":"SCALAR"
		},
		{
			"bufferView":55,
			"componentType":5126,
			"count":1116,
			"max":[
				0.2908099889755249,
				-0.18294000625610352,
				0.6625099778175354
			],
			"min":[
				-0.2908099889755249,
				-0.6888899803161621,
				0.23430000245571136
			],
			"type":"VEC3"
		},
		{
			"bufferView":56,
			"componentType":5126,
			"count":1116,
			"type":"VEC3"
		},
		{
			"bufferView":57,
			"componentType":5123,
			"count":6360,
			"type":"SCALAR"
		},
		{
			"bufferView":58,
			"componentType":5126,
			"count":223,
			"max":[
				0.38534000515937805,
				-0.16854999959468842,
				0.515749990940094
			],
			"min":[
				-0.38534000515937805,
				-0.4818199872970581,
				0.1824900060892105
			],
			"type":"VEC3"
		},
		{
			"bufferView":59,
			"componentType":5126,
			"count":223,
			"type":"VEC3"
		},
		{
			"bufferView":60,
			"componentType":5123,
			"count":1248,
			"type":"SCALAR"
		},
		{
			"bufferView":61,
			"componentType":5126,
			"count":734,
			"max":[
				0.33570998907089233,
				1.1832799911499023,
				1.0392299890518188
			],
			"min":[
				-0.4390900135040283,
				-0.38304999470710754,
				-0.6694300174713135
			],
			"type":"VEC3"
		},
		{
			"bufferView":62,
			"componentType":5126,
			"count":734,
			"type":"VEC3"
		},
		{
			"bufferView":63,
			"componentType":5123,
			"count":2151,
			"type":"SCALAR"
		},
		{
			"bufferView":64,
			"componentType":5126,
			"count":104,
			"max":[
				0.2908099889755249,
				-0.18294000625610352,
				0.5518199801445007
			],
			"min":[
				-0.2908099889755249,
				-0.6888899803161621,
				0.402539998292923
			],
			"type":"VEC3"
		},
		{
			"bufferView":65,
			"componentType":5126,
			"count":104,
			"type":"VEC3"
		},
		{
			"bufferView":66,
			"componentType":5123,
			"count":312,
			"type":"SCALAR"
		},
		{
			"bufferView":67,
			"componentType":5126,
			"count":52,
			"max":[
				0.0009899999713525176,
				0.0003600000054575503,
				0.1298999935388565
			],
			"min":[
				-0.07081999629735947,
				-0.3647400140762329,
				-0.009979999624192715
			],
			"type":"VEC3"
		},
		{
			"bufferView":68,
			"componentType":5126,
			"count":52,
			"type":"VEC3"
		},
		{
			"bufferView":69,
			"componentType":5123,
			"count":72,
			"type":"SCALAR"
		}
	],
	"bufferViews":[
		{
			"buffer":0,
			"byteLength":1486296,
			"byteOffset":0,
			"target":34962
		},
		{
			"buffer":0,
			"byteLength":1486296,
			"byteOffset":1486296,
			"target":34962
		},
		{
			"buffer":0,
			"byteLength":990864,
			"byteOffset":2972592,
			"target":34962
		},
		{
			"buffer":0,
			"byteLength":1981728,
			"byteOffset":3963456,
			"target":34962
		},
		{
			"buffer":0,
			"byteLength":601092,
			"byteOffset":5945184,
			"target":34963
		},
		{
			"buffer":0,
			"byteLength":224172,
			"byteOffset":6546276,
			"target":34962
		},
		{
			"buffer":0,
			"byteLength":224172,
			"byteOffset":6770448,
			"target":34962
		},
		{
			"buffer":0,
			"byteLength":149448,
			"byteOffset":6994620,
			"target":34962
		},
		{
			"buffer":0,
			"byteLength":298896,
			"byteOffset":7144068,
			"target":34962
		},
		{
			"buffer":0,
			"byteLength":45450,
			"byteOffset":7442964,
			"target":34963
		},
		{
			"buffer":0,
			"byteLength":1776,
			"byteOffset":7488416,
			"target":34962
		},
		{
			"buffer":0,
			"byteLength":1776,
			"byteOffset":7490192,
			"target":34962
		},
		{
			"buffer":0,
			"byteLength":1344,
			"byteOffset":7491968,
			"target":34963
		},
		{
			"buffer":0,
			"byteLength":44544,
			"byteOffset":7493312,
			"target":34962
		},
		{
			"buffer":0,
			"byteLength":44544,
			"byteOffset":7537856,
			"target":34962
		},
		{
			"buffer":0,
			"byteLength":16128,
			"byteOffset":7582400,
			"target":34963
		},
		{
			"buffer":0,
			"byteLength":2304,
			"byteOffset":7598528,
			"target":34962
		},
		{
			"buffer":0,
			"byteLength":2304,
			"byteOffset":7600832,
			"target":34962
		},
		{
			"buffer":0,
			"byteLength":2256,
			"byteOffset":7603136,
			"target":34963
		},
		{
			"buffer":0,
			"byteLength":29904,
			"byteOffset":7605392,
			"target":34962
		},
		{
			"buffer":0,
			"byteLength":29904,
			"byteOffset":7635296,
			"target":34962
		},
		{
			"buffer":0,
			"byteLength":26448,
			"byteOffset":7665200,
			"target":34963
		},
		{
			"buffer":0,
			"byteLength":3864,
			"byteOffset":7691648,
			"target":34962
		},
		{
			"buffer":0,
			"byteLength":3864,
			"byteOffset":7695512,
			"target":34962
		},
		{
			"buffer":0,
			"byteLength":3456,
			"byteOffset":7699376,
			"target":34963
		},
		{
			"buffer":0,
			"byteLength":312,
			"byteOffset":7702832,
			"target":34962
		},
		{
			"buffer":0,
			"byteLength":312,
			"byteOffset":7703144,
			"target":34962
		},
		{
			"buffer":0,
			"byteLength":72,
			"byteOffset":7703456,
			"target":34963
		},
		{
			"buffer":0,
			"byteLength":192,
			"byteOffset":7703528,
			"target":34962
		},
		{
			"buffer":0,
			"byteLength":192,
			"byteOffset":7703720,
			"target":34962
		},
		{
			"buffer":0,
			"byteLength":128,
			"byteOffset":7703912,
			"target":34962
		},
		{
			"buffer":0,
			"byteLength":256,
			"byteOffset":7704040,
			"target":34962
		},
		{
			"buffer":0,
			"byteLength":108,
			"byteOffset":7704296,
			"target":34963
		},
		{
			"buffer":0,
			"byteLength":192,
			"byteOffset":7704404,
			"target":34962
		},
		{
			"buffer":0,
			"byteLength":192,
			"byteOffset":7704596,
			"target":34962
		},
		{
			"buffer":0,
			"byteLength":128,
			"byteOffset":7704788,
			"target":34962
		},
		{
			"buffer":0,
			"byteLength":256,
			"byteOffset":7704916,
			"target":34962
		},
		{
			"buffer":0,
			"byteLength":105468,
			"byteOffset":7705172,
			"target":34962
		},
		{
			"buffer":0,
			"byteLength":105468,
			"byteOffset":7810640,
			"target":34962
		},
		{
			"buffer":0,
			"byteLength":98304,
			"byteOffset":7916108,
			"target":34963
		},
		{
			"buffer":0,
			"byteLength":13392,
			"byteOffset":8014412,
			"target":34962
		},
		{
			"buffer":0,
			"byteLength":13392,
			"byteOffset":8027804,
			"target":34962
		},
		{
			"buffer":0,
			"byteLength":12720,
			"byteOffset":8041196,
			"target":34963
		},
		{
			"buffer":0,
			"byteLength":2676,
			"byteOffset":8053916,
			"target":34962
		},
		{
			"buffer":0,
			"byteLength":2676,
			"byteOffset":8056592,
			"target":34962
		},
		{
			"buffer":0,
			"byteLength":2496,
			"byteOffset":8059268,
			"target":34963
		},
		{
			"buffer":0,
			"byteLength":8772,
			"byteOffset":8061764,
			"target":34962
		},
		{
			"buffer":0,
			"byteLength":8772,
			"byteOffset":8070536,
			"target":34962
		},
		{
			"buffer":0,
			"byteLength":4302,
			"byteOffset":8079308,
			"target":34963
		},
		{
			"buffer":0,
			"byteLength":1248,
			"byteOffset":8083612,
			"target":34962
		},
		{
			"buffer":0,
			"byteLength":1248,
			"byteOffset":8084860,
			"target":34962
		},
		{
			"buffer":0,
			"byteLength":624,
			"byteOffset":8086108,
			"target":34963
		},
		{
			"buffer":0,
			"byteLength":105336,
			"byteOffset":8086732,
			"target":34962
		},
		{
			"buffer":0,
			"byteLength":105336,
			"byteOffset":8192068,
			"target":34962
		},
		{
			"buffer":0,
			"byteLength":98304,
			"byteOffset":8297404,
			"target":34963
		},
		{
			"buffer":0,
			"byteLength":13392,
			"byteOffset":8395708,
			"target":34962
		},
		{
			"buffer":0,
			"byteLength":13392,
			"byteOffset":8409100,
			"target":34962
		},
		{
			"buffer":0,
			"byteLength":12720,
			"byteOffset":8422492,
			"target":34963
		},
		{
			"buffer":0,
			"byteLength":2676,
			"byteOffset":8435212,
			"target":34962
		},
		{
			"buffer":0,
			"byteLength":2676,
			"byteOffset":8437888,
			"target":34962
		},
		{
			"buffer":0,
			"byteLength":2496,
			"byteOffset":8440564,
			"target":34963
		},
		{
			"buffer":0,
			"byteLength":8808,
			"byteOffset":8443060,
			"target":34962
		},
		{
			"buffer":0,
			"byteLength":8808,
			"byteOffset":8451868,
			"target":34962
		},
		{
			"buffer":0,
			"byteLength":4302,
			"byteOffset":8460676,
			"target":34963
		},
		{
			"buffer":0,
			"byteLength":1248,
			"byteOffset":8464980,
			"target":34962
		},
		{
			"buffer":0,
			"byteLength":1248,
			"byteOffset":8466228,
			"target":34962
		},
		{
			"buffer":0,
			"byteLength":624,
			"byteOffset":8467476,
			"target":34963
		},
		{
			"buffer":0,
			"byteLength":624,
			"byteOffset":8468100,
			"target":34962
		},
		{
			"buffer":0,
			"byteLength":624,
			"byteOffset":8468724,
			"target":34962
		},
		{
			"buffer":0,
			"byteLength":144,
			"byteOffset":8469348,
			"target":34963
		}
	],
	"samplers":[
		{
			"magFilter":9729,
			"minFilter":9987
		}
	],
	"buffers":[
		{
			"byteLength":8469492,
			"uri":"scene.bin"
		}
	]
}
