{
	"asset":{
		"generator":"Khronos glTF Blender I/O v4.5.48",
		"version":"2.0"
	},
	"extensionsUsed":[
		"KHR_lights_punctual"
	],
	"extensionsRequired":[
		"KHR_lights_punctual"
	],
	"extensions":{
		"KHR_lights_punctual":{
			"lights":[
				{
					"color":[
						1,
						1,
						1
					],
					"intensity":683,
					"type":"directional",
					"name":"Sun"
				}
			]
		}
	},
	"scene":0,
	"scenes":[
		{
			"name":"Scene",
			"nodes":[
				7
			]
		}
	],
	"nodes":[
		{
			"mesh":0,
			"name":"Sphere",
			"rotation":[
				-0.29682421684265137,
				-0.4883619546890259,
				0.08606460690498352,
				0.8160826563835144
			],
			"translation":[
				1.0521130561828613,
				0.1891750991344452,
				-2.6071817874908447
			]
		},
		{
			"mesh":1,
			"name":"Torus",
			"rotation":[
				0.4596739113330841,
				0.75629723072052,
				-0.1332830786705017,
				0.446038156747818
			]
		},
		{
			"children":[
				0,
				1
			],
			"name":"Collection"
		},
		{
			"children":[
				2
			],
			"name":"Scene Collection"
		},
		{
			"mesh":2,
			"name":"Sphere.001",
			"translation":[
				-2.1614058017730713,
				0.3452244997024536,
				0.12441056221723557
			]
		},
		{
			"mesh":3,
			"name":"Sphere.002",
			"translation":[
				-0.9217748045921326,
				2.461766242980957,
				-0.3517446219921112
			]
		},
		{
			"extensions":{
				"KHR_lights_punctual":{
					"light":0
				}
			},
			"name":"Sun",
			"rotation":[
				0.10653337091207504,
				0.5369142889976501,
				-0.5369143486022949,
				0.6419476270675659
			]
		},
		{
			"children":[
				3,
				4,
				5,
				6
			],
			"name":"Scene Collection"
		}
	],
	"materials":[
		{
			"doubleSided":true,
			"name":"Material.001",
			"pbrMetallicRoughness":{
				"baseColorFactor":[
					0.800000011920929,
					0.800000011920929,
					0.800000011920929,
					1
				],
				"metallicFactor":0,
				"roughnessFactor":0.5
			}
		},
		{
			"doubleSided":true,
			"name":"Material.002",
			"pbrMetallicRoughness":{
				"baseColorFactor":[
					0.800000011920929,
					0.800000011920929,
					0.800000011920929,
					1
				],
				"metallicFactor":0,
				"roughnessFactor":0.5
			}
		},
		{
			"doubleSided":true,
			"name":"Material.003",
			"pbrMetallicRoughness":{
				"baseColorFactor":[
					0.800000011920929,
					0.800000011920929,
					0.800000011920929,
					1
				],
				"metallicFactor":0,
				"roughnessFactor":0.5
			}
		}
	],
	"meshes":[
		{
			"name":"Sphere.002",
			"primitives":[
				{
					"attributes":{
						"POSITION":0,
						"NORMAL":1,
						"TEXCOORD_0":2,
						"TANGENT":3
					},
					"indices":4,
					"material":0
				}
			]
		},
		{
			"name":"Torus",
			"primitives":[
				{
					"attributes":{
						"POSITION":5,
						"NORMAL":6,
						"TEXCOORD_0":7,
						"TANGENT":8
					},
					"indices":9,
					"material":0
				}
			]
		},
		{
			"name":"Sphere.003",
			"primitives":[
				{
					"attributes":{
						"POSITION":10,
						"NORMAL":11,
						"TEXCOORD_0":12,
						"TANGENT":13
					},
					"indices":14,
					"material":1
				}
			]
		},
		{
			"name":"Sphere.004",
			"primitives":[
				{
					"attributes":{
						"POSITION":15,
						"NORMAL":16,
						"TEXCOORD_0":17,
						"TANGENT":18
					},
					"indices":19,
					"material":2
				}
			]
		}
	],
	"accessors":[
		{
			"bufferView":0,
			"componentType":5126,
			"count":2020,
			"max":[
				0.9999997019767761,
				1,
				0.9999993443489075
			],
			"min":[
				-0.9999990463256836,
				-1,
				-1
			],
			"type":"VEC3"
		},
		{
			"bufferView":1,
			"componentType":5126,
			"count":2020,
			"type":"VEC3"
		},
		{
			"bufferView":2,
			"componentType":5126,
			"count":2020,
			"type":"VEC2"
		},
		{
			"bufferView":3,
			"componentType":5126,
			"count":2020,
			"type":"VEC4"
		},
		{
			"bufferView":4,
			"componentType":5123,
			"count":2880,
			"type":"SCALAR"
		},
		{
			"bufferView":5,
			"componentType":5126,
			"count":2304,
			"max":[
				1.25,
				0.25,
				1.25
			],
			"min":[
				-1.25,
				-0.25,
				-1.25
			],
			"type":"VEC3"
		},
		{
			"bufferView":6,
			"componentType":5126,
			"count":2304,
			"type":"VEC3"
		},
		{
			"bufferView":7,
			"componentType":5126,
			"count":2304,
			"type":"VEC2"
		},
		{
			"bufferView":8,
			"componentType":5126,
			"count":2304,
			"type":"VEC4"
		},
		{
			"bufferView":9,
			"componentType":5123,
			"count":3456,
			"type":"SCALAR"
		},
		{
			"bufferView":10,
			"componentType":5126,
			"count":4223,
			"max":[
				0.9999998807907104,
				1,
				0.9999997615814209
			],
			"min":[
				-0.9999997019767761,
				-1,
				-1
			],
			"type":"VEC3"
		},
		{
			"bufferView":11,
			"componentType":5126,
			"count":4223,
			"type":"VEC3"
		},
		{
			"bufferView":12,
			"componentType":5126,
			"count":4223,
			"type":"VEC2"
		},
		{
			"bufferView":13,
			"componentType":5126,
			"count":4223,
			"type":"VEC4"
		},
		{
			"bufferView":14,
			"componentType":5123,
			"count":24192,
			"type":"SCALAR"
		},
		{
			"bufferView":15,
			"componentType":5126,
			"count":58,
			"max":[
				0.936607837677002,
				1,
				0.7967262864112854
			],
			"min":[
				-0.936607837677002,
				-1,
				-0.9848077297210693
			],
			"type":"VEC3"
		},
		{
			"bufferView":16,
			"componentType":5126,
			"count":58,
			"type":"VEC3"
		},
		{
			"bufferView":17,
			"componentType":5126,
			"count":58,
			"type":"VEC2"
		},
		{
			"bufferView":18,
			"componentType":5126,
			"count":58,
			"type":"VEC4"
		},
		{
			"bufferView":19,
			"componentType":5123,
			"count":240,
			"type":"SCALAR"
		}
	],
	"bufferViews":[
		{
			"buffer":0,
			"byteLength":24240,
			"byteOffset":0,
			"target":34962
		},
		{
			"buffer":0,
			"byteLength":24240,
			"byteOffset":24240,
			"target":34962
		},
		{
			"buffer":0,
			"byteLength":16160,
			"byteOffset":48480,
			"target":34962
		},
		{
			"buffer":0,
			"byteLength":32320,
			"byteOffset":64640,
			"target":34962
		},
		{
			"buffer":0,
			"byteLength":5760,
			"byteOffset":96960,
			"target":34963
		},
		{
			"buffer":0,
			"byteLength":27648,
			"byteOffset":102720,
			"target":34962
		},
		{
			"buffer":0,
			"byteLength":27648,
			"byteOffset":130368,
			"target":34962
		},
		{
			"buffer":0,
			"byteLength":18432,
			"byteOffset":158016,
			"target":34962
		},
		{
			"buffer":0,
			"byteLength":36864,
			"byteOffset":176448,
			"target":34962
		},
		{
			"buffer":0,
			"byteLength":6912,
			"byteOffset":213312,
			"target":34963
		},
		{
			"buffer":0,
			"byteLength":50676,
			"byteOffset":220224,
			"target":34962
		},
		{
			"buffer":0,
			"byteLength":50676,
			"byteOffset":270900,
			"target":34962
		},
		{
			"buffer":0,
			"byteLength":33784,
			"byteOffset":321576,
			"target":34962
		},
		{
			"buffer":0,
			"byteLength":67568,
			"byteOffset":355360,
			"target":34962
		},
		{
			"buffer":0,
			"byteLength":48384,
			"byteOffset":422928,
			"target":34963
		},
		{
			"buffer":0,
			"byteLength":696,
			"byteOffset":471312,
			"target":34962
		},
		{
			"buffer":0,
			"byteLength":696,
			"byteOffset":472008,
			"target":34962
		},
		{
			"buffer":0,
			"byteLength":464,
			"byteOffset":472704,
			"target":34962
		},
		{
			"buffer":0,
			"byteLength":928,
			"byteOffset":473168,
			"target":34962
		},
		{
			"buffer":0,
			"byteLength":480,
			"byteOffset":474096,
			"target":34963
		}
	],
	"buffers":[
		{
			"byteLength":474576,
			"uri":"scene.bin"
		}
	]
}
